<svg width="137" height="59" viewBox="0 0 137 59" fill="none" xmlns="http://www.w3.org/2000/svg">
<path d="M120.225 46.944C118.529 46.944 117.009 46.656 115.665 46.08C114.321 45.472 113.249 44.608 112.449 43.488C111.681 42.336 111.297 40.944 111.297 39.312C111.297 37.68 111.681 36.32 112.449 35.232C113.249 34.112 114.337 33.28 115.713 32.736C117.121 32.16 118.721 31.872 120.513 31.872H127.041V30.528C127.041 29.408 126.689 28.496 125.985 27.792C125.281 27.056 124.161 26.688 122.625 26.688C121.121 26.688 120.001 27.04 119.265 27.744C118.529 28.416 118.049 29.296 117.825 30.384L112.257 28.512C112.641 27.296 113.249 26.192 114.081 25.2C114.945 24.176 116.081 23.36 117.489 22.752C118.929 22.112 120.673 21.792 122.721 21.792C125.857 21.792 128.337 22.576 130.161 24.144C131.985 25.712 132.897 27.984 132.897 30.96V39.84C132.897 40.8 133.345 41.28 134.241 41.28H136.161V46.272H132.129C130.945 46.272 129.969 45.984 129.201 45.408C128.433 44.832 128.049 44.064 128.049 43.104V43.056H127.137C127.009 43.44 126.721 43.952 126.273 44.592C125.825 45.2 125.121 45.744 124.161 46.224C123.201 46.704 121.889 46.944 120.225 46.944ZM121.281 42.048C122.977 42.048 124.353 41.584 125.409 40.656C126.497 39.696 127.041 38.432 127.041 36.864V36.384H120.945C119.825 36.384 118.945 36.624 118.305 37.104C117.665 37.584 117.345 38.256 117.345 39.12C117.345 39.984 117.681 40.688 118.353 41.232C119.025 41.776 120.001 42.048 121.281 42.048Z" fill="#FFFDFD"/>
<path d="M94.3638 46.272V22.464H100.316V25.152H101.18C101.532 24.192 102.108 23.488 102.908 23.04C103.74 22.592 104.7 22.368 105.788 22.368H108.668V27.744H105.692C104.156 27.744 102.892 28.16 101.9 28.992C100.908 29.792 100.412 31.04 100.412 32.736V46.272H94.3638Z" fill="#FFFDFD"/>
<path d="M81.6139 46.272V22.464H87.6619V46.272H81.6139ZM84.6379 19.68C83.5499 19.68 82.6219 19.328 81.8539 18.624C81.1179 17.92 80.7499 16.992 80.7499 15.84C80.7499 14.688 81.1179 13.76 81.8539 13.056C82.6219 12.352 83.5499 12 84.6379 12C85.7579 12 86.6859 12.352 87.4219 13.056C88.1579 13.76 88.5259 14.688 88.5259 15.84C88.5259 16.992 88.1579 17.92 87.4219 18.624C86.6859 19.328 85.7579 19.68 84.6379 19.68Z" fill="#FFFDFD"/>
<path d="M61.5416 46.272V18.432H51.7496V12.672H77.6696V18.432H67.8776V46.272H61.5416Z" fill="#FFFDFD"/>
<path d="M33.5996 46.944C31.9036 46.944 30.3836 46.656 29.0396 46.08C27.6956 45.472 26.6236 44.608 25.8236 43.488C25.0556 42.336 24.6716 40.944 24.6716 39.312C24.6716 37.68 25.0556 36.32 25.8236 35.232C26.6236 34.112 27.7116 33.28 29.0876 32.736C30.4956 32.16 32.0956 31.872 33.8876 31.872H40.4156V30.528C40.4156 29.408 40.0636 28.496 39.3596 27.792C38.6556 27.056 37.5356 26.688 35.9996 26.688C34.4956 26.688 33.3756 27.04 32.6396 27.744C31.9036 28.416 31.4236 29.296 31.1996 30.384L25.6316 28.512C26.0156 27.296 26.6236 26.192 27.4556 25.2C28.3196 24.176 29.4556 23.36 30.8636 22.752C32.3036 22.112 34.0476 21.792 36.0956 21.792C39.2316 21.792 41.7116 22.576 43.5356 24.144C45.3596 25.712 46.2716 27.984 46.2716 30.96V39.84C46.2716 40.8 46.7196 41.28 47.6156 41.28H49.5356V46.272H45.5036C44.3196 46.272 43.3436 45.984 42.5756 45.408C41.8076 44.832 41.4236 44.064 41.4236 43.104V43.056H40.5116C40.3836 43.44 40.0956 43.952 39.6476 44.592C39.1996 45.2 38.4956 45.744 37.5356 46.224C36.5756 46.704 35.2636 46.944 33.5996 46.944ZM34.6556 42.048C36.3516 42.048 37.7276 41.584 38.7836 40.656C39.8716 39.696 40.4156 38.432 40.4156 36.864V36.384H34.3196C33.1996 36.384 32.3196 36.624 31.6796 37.104C31.0396 37.584 30.7196 38.256 30.7196 39.12C30.7196 39.984 31.0556 40.688 31.7276 41.232C32.3996 41.776 33.3756 42.048 34.6556 42.048Z" fill="#FFFDFD"/>
<path d="M0 46.272V12.672H6.336V40.512H21.696V46.272H0Z" fill="#FFFDFD"/>
</svg>
