<svg width="182" height="58" viewBox="0 0 182 58" fill="none" xmlns="http://www.w3.org/2000/svg">
<path d="M1.82092e-05 55.08V4.68001H13.68V43.848H34.56V55.08H1.82092e-05ZM48.226 55.8C41.386 55.8 36.706 51.696 36.706 45.72C36.706 38.952 42.682 34.272 53.194 33.336L58.81 32.832V31.824C58.81 29.232 57.154 27.504 54.706 27.504C52.258 27.504 50.53 29.232 50.386 31.752L37.786 31.464C38.074 23.256 45.346 17.28 55.066 17.28C64.642 17.28 71.626 23.616 71.626 32.184V43.56C71.626 47.376 71.842 52.128 72.346 55.08H59.746C59.458 53.568 59.314 51.912 59.314 50.76C57.154 53.64 53.122 55.8 48.226 55.8ZM52.978 47.016C56.218 47.016 58.954 44.208 58.954 40.464V40.176L54.202 40.68C51.61 40.968 49.666 42.048 49.666 44.208C49.666 45.936 50.962 47.016 52.978 47.016ZM98.4347 54.936C88.7147 57.096 78.9947 54.144 78.9947 41.04V29.16H73.2347V18.36H78.9947V9.00001H91.9547V18.36H99.5147V29.16H91.9547V39.96C91.9547 44.496 94.9787 44.784 98.4347 44.136V54.936ZM102.406 55.08V18.36H115.366V55.08H102.406ZM108.886 15.12C104.638 15.12 101.326 11.88 101.326 7.56002C101.326 3.31201 104.638 1.38283e-05 108.886 1.38283e-05C113.206 1.38283e-05 116.446 3.31201 116.446 7.56002C116.446 11.88 113.206 15.12 108.886 15.12ZM118.966 55.08V18.36H131.926L131.566 26.64C133.366 19.08 139.054 16.92 144.886 18.36V31.32C139.126 30.24 131.926 31.104 131.926 39.96V55.08H118.966ZM157.146 55.8C150.306 55.8 145.626 51.696 145.626 45.72C145.626 38.952 151.602 34.272 162.114 33.336L167.73 32.832V31.824C167.73 29.232 166.074 27.504 163.626 27.504C161.178 27.504 159.45 29.232 159.306 31.752L146.706 31.464C146.994 23.256 154.266 17.28 163.986 17.28C173.562 17.28 180.546 23.616 180.546 32.184V43.56C180.546 47.376 180.762 52.128 181.266 55.08H168.666C168.378 53.568 168.234 51.912 168.234 50.76C166.074 53.64 162.042 55.8 157.146 55.8ZM161.898 47.016C165.138 47.016 167.874 44.208 167.874 40.464V40.176L163.122 40.68C160.53 40.968 158.586 42.048 158.586 44.208C158.586 45.936 159.882 47.016 161.898 47.016Z" fill="#FFFDFD"/>
</svg>
